<svg width="727" height="558" viewBox="0 0 727 558" fill="none" xmlns="http://www.w3.org/2000/svg">
<path id="blue-blob" fill-rule="evenodd" clip-rule="evenodd" d="M350.105 0.502186C410.469 -2.72684 468.697 9.71608 523.633 34.9394C590.525 65.6523 665.791 94.6656 698.646 160.532C733.229 229.86 737.607 319.878 699.382 387.266C662.736 451.869 576.713 461.375 509.759 493.524C457.064 518.825 408.248 548.952 350.105 554.974C286.41 561.572 222.065 557.272 164.465 529.291C98.2713 497.135 20.9388 457.913 3.25355 386.478C-14.3701 315.293 43.6828 249.863 79.4346 185.833C108.202 134.312 140.873 86.1477 189.562 52.8099C237.167 20.2141 292.492 3.58408 350.105 0.502186Z" fill="#8CD8F0"/>
</svg>
