<svg width="565" height="512" viewBox="0 0 565 512" fill="none" xmlns="http://www.w3.org/2000/svg">
<path id="blue-blob-about-us" fill-rule="evenodd" clip-rule="evenodd" d="M324.022 0.369461C395.065 -5.67531 449.645 63.6981 497.123 116.891C536.768 161.307 544.896 221.169 569.494 275.385C598.446 339.197 666.148 393.326 653.84 462.308C641.424 531.896 574.924 583.489 509.672 610.669C451.011 635.104 387.092 607.455 324.022 599.691C270.36 593.086 216.945 593.422 168.853 568.717C113.864 540.468 59.7116 505.362 32.4217 449.891C2.82238 389.726 -13.4621 315.548 14.2679 254.499C41.3243 194.932 120.497 186.129 171.077 144.633C226.617 99.066 252.44 6.46008 324.022 0.369461Z" fill="#8CD8F0"/>
</svg>
