<svg width="494" height="280" viewBox="0 0 494 280" fill="none" xmlns="http://www.w3.org/2000/svg">
<path d="M24.6 20.976C30.8773 20.976 35.7467 22.9413 39.208 26.872C42.728 30.744 44.488 36.3173 44.488 43.592C44.488 51.16 42.4053 57.0853 38.24 61.368C34.1333 65.592 28.472 67.704 21.256 67.704C16.504 67.704 11.8987 66.824 7.44 65.064L3.48 64.096V0.207994H11.752V26.696C14.92 22.8827 19.2027 20.976 24.6 20.976ZM21.168 61.192C25.8027 61.192 29.44 59.6667 32.08 56.616C34.72 53.5067 36.04 49.1653 36.04 43.592C36.04 38.4293 34.984 34.4693 32.872 31.712C30.8187 28.896 27.8853 27.488 24.072 27.488C21.0213 27.488 18.4107 28.3093 16.24 29.952C14.0693 31.5947 12.5733 33.8533 11.752 36.728V59.872C14.744 60.752 17.8827 61.192 21.168 61.192ZM62.6758 21.768L63.6438 28.016C66.8118 23.3227 70.9771 20.976 76.1398 20.976C77.7825 20.976 79.7185 21.2693 81.9478 21.856L80.6278 29.248C78.1051 28.6613 76.1398 28.368 74.7318 28.368C72.2678 28.368 70.2145 28.8667 68.5718 29.864C66.9878 30.8027 65.5505 32.416 64.2598 34.704V67H55.9878V21.768H62.6758ZM90.7946 4.696H98.8906V12.352H90.7946V4.696ZM90.7946 21.768H98.8906V67H90.7946V21.768ZM151.574 0.207994V66.912H144.886L143.742 61.368C140.398 65.592 135.939 67.704 130.366 67.704C124.088 67.704 119.19 65.768 115.67 61.896C112.208 57.9653 110.478 52.3627 110.478 45.088C110.478 37.52 112.531 31.624 116.638 27.4C120.803 23.1173 126.494 20.976 133.71 20.976C136.819 20.976 140.016 21.3867 143.302 22.208V0.207994H151.574ZM130.894 61.192C133.944 61.192 136.555 60.3707 138.726 58.728C140.955 57.0267 142.48 54.68 143.302 51.688V28.808C140.31 27.928 137.142 27.488 133.798 27.488C129.163 27.488 125.526 29.0427 122.886 32.152C120.246 35.2027 118.926 39.5147 118.926 45.088C118.926 50.2507 119.952 54.24 122.006 57.056C124.118 59.8133 127.08 61.192 130.894 61.192ZM203.738 21.68V69.64C203.738 82.6053 196.874 89.088 183.146 89.088C176.516 89.088 170.239 87.5627 164.314 84.512L167.13 78.44C170.298 80.024 173.026 81.1093 175.314 81.696C177.602 82.2827 180.212 82.576 183.146 82.576C187.546 82.576 190.684 81.5787 192.562 79.584C194.498 77.648 195.466 74.392 195.466 69.816V61.896C192.298 65.768 187.986 67.704 182.53 67.704C176.252 67.704 171.354 65.768 167.834 61.896C164.372 57.9653 162.642 52.3627 162.642 45.088C162.642 37.52 164.695 31.624 168.802 27.4C172.967 23.1173 178.658 20.976 185.874 20.976C189.687 20.976 193.354 21.5333 196.874 22.648L197.138 21.68H203.738ZM183.058 61.192C186.108 61.192 188.719 60.3707 190.89 58.728C193.119 57.0267 194.644 54.68 195.466 51.688V28.808C192.474 27.928 189.306 27.488 185.962 27.488C181.327 27.488 177.69 29.0427 175.05 32.152C172.41 35.2027 171.09 39.5147 171.09 45.088C171.09 50.2507 172.116 54.24 174.17 57.056C176.282 59.8133 179.244 61.192 183.058 61.192ZM218.584 4.696H226.68V12.352H218.584V4.696ZM218.584 21.768H226.68V67H218.584V21.768ZM265.019 20.976C269.829 20.976 273.496 22.3547 276.019 25.112C278.6 27.8693 279.891 31.8587 279.891 37.08V67H271.619V37.696C271.619 34.1173 270.915 31.536 269.507 29.952C268.157 28.3093 265.957 27.488 262.907 27.488C260.149 27.488 257.627 28.1333 255.339 29.424C253.051 30.656 251.173 32.3867 249.707 34.616V67H241.435V21.768H248.211L249.179 28.104C253.227 23.352 258.507 20.976 265.019 20.976ZM331.785 21.68V69.64C331.785 82.6053 324.921 89.088 311.193 89.088C304.563 89.088 298.286 87.5627 292.361 84.512L295.177 78.44C298.345 80.024 301.073 81.1093 303.361 81.696C305.649 82.2827 308.259 82.576 311.193 82.576C315.593 82.576 318.731 81.5787 320.609 79.584C322.545 77.648 323.513 74.392 323.513 69.816V61.896C320.345 65.768 316.033 67.704 310.577 67.704C304.299 67.704 299.401 65.768 295.881 61.896C292.419 57.9653 290.689 52.3627 290.689 45.088C290.689 37.52 292.742 31.624 296.849 27.4C301.014 23.1173 306.705 20.976 313.921 20.976C317.734 20.976 321.401 21.5333 324.921 22.648L325.185 21.68H331.785ZM311.105 61.192C314.155 61.192 316.766 60.3707 318.937 58.728C321.166 57.0267 322.691 54.68 323.513 51.688V28.808C320.521 27.928 317.353 27.488 314.009 27.488C309.374 27.488 305.737 29.0427 303.097 32.152C300.457 35.2027 299.137 39.5147 299.137 45.088C299.137 50.2507 300.163 54.24 302.217 57.056C304.329 59.8133 307.291 61.192 311.105 61.192ZM363.615 28.104V21.768H372.239L373.647 8.568H379.807V21.768H393.623V28.104H379.807V53.096C379.807 58.3173 382.007 60.928 386.407 60.928C388.167 60.928 390.337 60.5173 392.919 59.696L394.327 65.504C391.1 66.8533 387.961 67.528 384.911 67.528C380.98 67.528 377.753 66.3547 375.231 64.008C372.767 61.6613 371.535 58.1707 371.535 53.536V28.104H363.615ZM427.619 20.976C432.429 20.976 436.096 22.3547 438.619 25.112C441.2 27.8693 442.491 31.8587 442.491 37.08V67H434.219V37.696C434.219 34.1173 433.515 31.536 432.107 29.952C430.757 28.3093 428.557 27.488 425.507 27.488C422.749 27.488 420.227 28.1333 417.939 29.424C415.651 30.656 413.773 32.3867 412.307 34.616V67H404.035V0.207994H412.307V27.488C416.296 23.1467 421.4 20.976 427.619 20.976ZM453.282 44.296C453.282 36.904 455.13 31.184 458.826 27.136C462.522 23.0293 467.744 20.976 474.49 20.976C481.12 20.976 485.901 22.9707 488.834 26.96C491.826 30.8907 493.322 36.5813 493.322 44.032V45.44H461.73C461.848 50.544 463.05 54.4453 465.338 57.144C467.626 59.8427 470.912 61.192 475.194 61.192C477.541 61.192 479.8 60.928 481.97 60.4C484.141 59.8133 486.546 58.9333 489.186 57.76L491.562 63.392C488.57 64.9173 485.725 66.032 483.026 66.736C480.328 67.3813 477.57 67.704 474.754 67.704C467.949 67.704 462.669 65.6507 458.914 61.544C455.16 57.4373 453.282 51.688 453.282 44.296ZM474.49 27.488C471.029 27.488 468.242 28.4853 466.13 30.48C464.077 32.4747 462.728 35.408 462.082 39.28H484.61C484.2 35.232 483.173 32.2693 481.53 30.392C479.888 28.456 477.541 27.488 474.49 27.488ZM41.144 127.68V175.64C41.144 188.605 34.28 195.088 20.552 195.088C13.9227 195.088 7.64533 193.563 1.72 190.512L4.536 184.44C7.704 186.024 10.432 187.109 12.72 187.696C15.008 188.283 17.6187 188.576 20.552 188.576C24.952 188.576 28.0907 187.579 29.968 185.584C31.904 183.648 32.872 180.392 32.872 175.816V167.896C29.704 171.768 25.392 173.704 19.936 173.704C13.6587 173.704 8.76 171.768 5.24 167.896C1.77867 163.965 0.0480003 158.363 0.0480003 151.088C0.0480003 143.52 2.10133 137.624 6.208 133.4C10.3733 129.117 16.064 126.976 23.28 126.976C27.0933 126.976 30.76 127.533 34.28 128.648L34.544 127.68H41.144ZM20.464 167.192C23.5147 167.192 26.1253 166.371 28.296 164.728C30.5253 163.027 32.0507 160.68 32.872 157.688V134.808C29.88 133.928 26.712 133.488 23.368 133.488C18.7333 133.488 15.096 135.043 12.456 138.152C9.816 141.203 8.496 145.515 8.496 151.088C8.496 156.251 9.52267 160.24 11.576 163.056C13.688 165.813 16.6507 167.192 20.464 167.192ZM52.4699 150.296C52.4699 142.904 54.3179 137.184 58.0139 133.136C61.7099 129.029 66.9312 126.976 73.6779 126.976C80.3072 126.976 85.0885 128.971 88.0219 132.96C91.0139 136.891 92.5099 142.581 92.5099 150.032V151.44H60.9179C61.0352 156.544 62.2379 160.445 64.5259 163.144C66.8139 165.843 70.0992 167.192 74.3819 167.192C76.7285 167.192 78.9872 166.928 81.1579 166.4C83.3285 165.813 85.7339 164.933 88.3739 163.76L90.7499 169.392C87.7579 170.917 84.9125 172.032 82.2139 172.736C79.5152 173.381 76.7579 173.704 73.9419 173.704C67.1365 173.704 61.8565 171.651 58.1019 167.544C54.3472 163.437 52.4699 157.688 52.4699 150.296ZM73.6779 133.488C70.2165 133.488 67.4299 134.485 65.3179 136.48C63.2645 138.475 61.9152 141.408 61.2699 145.28H83.7979C83.3872 141.232 82.3605 138.269 80.7179 136.392C79.0752 134.456 76.7285 133.488 73.6779 133.488ZM126.659 126.976C131.47 126.976 135.137 128.355 137.659 131.112C140.241 133.869 141.531 137.859 141.531 143.08V173H133.259V143.696C133.259 140.117 132.555 137.536 131.147 135.952C129.798 134.309 127.598 133.488 124.547 133.488C121.79 133.488 119.267 134.133 116.979 135.424C114.691 136.656 112.814 138.387 111.347 140.616V173H103.075V127.768H109.851L110.819 134.104C114.867 129.352 120.147 126.976 126.659 126.976ZM193.425 106.208V172.912H186.737L185.593 167.368C182.249 171.592 177.791 173.704 172.217 173.704C165.94 173.704 161.041 171.768 157.521 167.896C154.06 163.965 152.329 158.363 152.329 151.088C152.329 143.52 154.383 137.624 158.489 133.4C162.655 129.117 168.345 126.976 175.561 126.976C178.671 126.976 181.868 127.387 185.153 128.208V106.208H193.425ZM172.745 167.192C175.796 167.192 178.407 166.371 180.577 164.728C182.807 163.027 184.332 160.68 185.153 157.688V134.808C182.161 133.928 178.993 133.488 175.649 133.488C171.015 133.488 167.377 135.043 164.737 138.152C162.097 141.203 160.777 145.515 160.777 151.088C160.777 156.251 161.804 160.24 163.857 163.056C165.969 165.813 168.932 167.192 172.745 167.192ZM204.493 150.296C204.493 142.904 206.341 137.184 210.037 133.136C213.733 129.029 218.955 126.976 225.701 126.976C232.331 126.976 237.112 128.971 240.045 132.96C243.037 136.891 244.533 142.581 244.533 150.032V151.44H212.941C213.059 156.544 214.261 160.445 216.549 163.144C218.837 165.843 222.123 167.192 226.405 167.192C228.752 167.192 231.011 166.928 233.181 166.4C235.352 165.813 237.757 164.933 240.397 163.76L242.773 169.392C239.781 170.917 236.936 172.032 234.237 172.736C231.539 173.381 228.781 173.704 225.965 173.704C219.16 173.704 213.88 171.651 210.125 167.544C206.371 163.437 204.493 157.688 204.493 150.296ZM225.701 133.488C222.24 133.488 219.453 134.485 217.341 136.48C215.288 138.475 213.939 141.408 213.293 145.28H235.821C235.411 141.232 234.384 138.269 232.741 136.392C231.099 134.456 228.752 133.488 225.701 133.488ZM262.051 127.768L263.019 134.016C266.187 129.323 270.352 126.976 275.515 126.976C277.157 126.976 279.093 127.269 281.323 127.856L280.003 135.248C277.48 134.661 275.515 134.368 274.107 134.368C271.643 134.368 269.589 134.867 267.947 135.864C266.363 136.803 264.925 138.416 263.635 140.704V173H255.363V127.768H262.051ZM349.746 127.68V175.64C349.746 188.605 342.882 195.088 329.154 195.088C322.524 195.088 316.247 193.563 310.322 190.512L313.138 184.44C316.306 186.024 319.034 187.109 321.322 187.696C323.61 188.283 326.22 188.576 329.154 188.576C333.554 188.576 336.692 187.579 338.57 185.584C340.506 183.648 341.474 180.392 341.474 175.816V167.896C338.306 171.768 333.994 173.704 328.538 173.704C322.26 173.704 317.362 171.768 313.842 167.896C310.38 163.965 308.65 158.363 308.65 151.088C308.65 143.52 310.703 137.624 314.81 133.4C318.975 129.117 324.666 126.976 331.882 126.976C335.695 126.976 339.362 127.533 342.882 128.648L343.146 127.68H349.746ZM329.066 167.192C332.116 167.192 334.727 166.371 336.898 164.728C339.127 163.027 340.652 160.68 341.474 157.688V134.808C338.482 133.928 335.314 133.488 331.97 133.488C327.335 133.488 323.698 135.043 321.058 138.152C318.418 141.203 317.098 145.515 317.098 151.088C317.098 156.251 318.124 160.24 320.178 163.056C322.29 165.813 325.252 167.192 329.066 167.192ZM360.895 160.768C360.895 155.957 362.831 152.232 366.703 149.592C370.575 146.952 376.061 145.632 383.159 145.632H389.847V143.872C389.847 140.117 389.055 137.448 387.471 135.864C385.946 134.28 383.306 133.488 379.551 133.488C377.146 133.488 375.005 133.723 373.127 134.192C371.25 134.603 368.845 135.453 365.911 136.744L363.447 131.024C368.962 128.325 374.389 126.976 379.727 126.976C386.122 126.976 390.786 128.355 393.719 131.112C396.653 133.811 398.119 138.123 398.119 144.048V173H391.695C391.637 172.765 391.519 172.208 391.343 171.328C391.167 170.389 390.903 169.187 390.551 167.72C386.327 171.944 381.399 174.056 375.767 174.056C371.25 174.056 367.642 172.853 364.943 170.448C362.245 168.043 360.895 164.816 360.895 160.768ZM369.167 160.592C369.167 162.821 369.871 164.552 371.279 165.784C372.687 166.957 374.711 167.544 377.351 167.544C379.698 167.544 381.986 167.016 384.215 165.96C386.445 164.845 388.322 163.349 389.847 161.472V151.792H383.687C378.877 151.792 375.239 152.525 372.775 153.992C370.37 155.459 369.167 157.659 369.167 160.592ZM433.139 126.976C439.416 126.976 444.285 128.941 447.747 132.872C451.267 136.744 453.027 142.317 453.027 149.592C453.027 157.16 450.944 163.085 446.779 167.368C442.672 171.592 437.011 173.704 429.795 173.704C426.392 173.704 423.253 173.293 420.379 172.472V194.56H412.107V127.768H418.795L419.851 133.224C421.435 131.171 423.341 129.616 425.571 128.56C427.859 127.504 430.381 126.976 433.139 126.976ZM429.707 167.192C434.341 167.192 437.979 165.667 440.619 162.616C443.259 159.507 444.579 155.165 444.579 149.592C444.579 144.429 443.523 140.469 441.411 137.712C439.357 134.896 436.424 133.488 432.611 133.488C429.619 133.488 427.037 134.28 424.867 135.864C422.755 137.448 421.259 139.648 420.379 142.464V165.872C423.371 166.752 426.48 167.192 429.707 167.192ZM3.568 216.696H11.664V224.352H3.568V216.696ZM3.568 233.768H11.664V279H3.568V233.768ZM50.0031 232.976C54.8138 232.976 58.4805 234.355 61.0031 237.112C63.5845 239.869 64.8751 243.859 64.8751 249.08V279H56.6031V249.696C56.6031 246.117 55.8991 243.536 54.4911 241.952C53.1418 240.309 50.9418 239.488 47.8911 239.488C45.1338 239.488 42.6111 240.133 40.3231 241.424C38.0351 242.656 36.1578 244.387 34.6911 246.616V279H26.4191V233.768H33.1951L34.1631 240.104C38.2111 235.352 43.4911 232.976 50.0031 232.976ZM96.177 240.104V233.768H104.801L106.209 220.568H112.369V233.768H126.185V240.104H112.369V265.096C112.369 270.317 114.569 272.928 118.969 272.928C120.729 272.928 122.9 272.517 125.481 271.696L126.889 277.504C123.662 278.853 120.524 279.528 117.473 279.528C113.542 279.528 110.316 278.355 107.793 276.008C105.329 273.661 104.097 270.171 104.097 265.536V240.104H96.177ZM133.165 256.296C133.165 248.904 135.013 243.184 138.709 239.136C142.405 235.029 147.627 232.976 154.373 232.976C161.003 232.976 165.784 234.971 168.717 238.96C171.709 242.891 173.205 248.581 173.205 256.032V257.44H141.613C141.731 262.544 142.933 266.445 145.221 269.144C147.509 271.843 150.795 273.192 155.077 273.192C157.424 273.192 159.683 272.928 161.853 272.4C164.024 271.813 166.429 270.933 169.069 269.76L171.445 275.392C168.453 276.917 165.608 278.032 162.909 278.736C160.211 279.381 157.453 279.704 154.637 279.704C147.832 279.704 142.552 277.651 138.797 273.544C135.043 269.437 133.165 263.688 133.165 256.296ZM154.373 239.488C150.912 239.488 148.125 240.485 146.013 242.48C143.96 244.475 142.611 247.408 141.965 251.28H164.493C164.083 247.232 163.056 244.269 161.413 242.392C159.771 240.456 157.424 239.488 154.373 239.488ZM180.603 256.296C180.603 249.021 182.421 243.331 186.059 239.224C189.696 235.059 195.093 232.976 202.251 232.976C209.115 232.976 214.336 235.469 217.915 240.456L212.371 244.592C210.963 242.891 209.437 241.629 207.795 240.808C206.211 239.928 204.363 239.488 202.251 239.488C198.085 239.488 194.829 240.925 192.483 243.8C190.195 246.616 189.051 250.781 189.051 256.296C189.051 261.869 190.224 266.093 192.571 268.968C194.976 271.784 198.379 273.192 202.779 273.192C205.243 273.192 207.325 272.928 209.027 272.4C210.728 271.813 212.635 271.051 214.747 270.112L217.035 275.744C212.693 278.267 207.736 279.528 202.163 279.528C195.064 279.528 189.696 277.475 186.059 273.368C182.421 269.261 180.603 263.571 180.603 256.296ZM251.103 232.976C255.914 232.976 259.58 234.355 262.103 237.112C264.684 239.869 265.975 243.859 265.975 249.08V279H257.703V249.696C257.703 246.117 256.999 243.536 255.591 241.952C254.242 240.309 252.042 239.488 248.991 239.488C246.234 239.488 243.711 240.133 241.423 241.424C239.135 242.656 237.258 244.387 235.791 246.616V279H227.519V212.208H235.791V239.488C239.78 235.147 244.884 232.976 251.103 232.976Z" fill="#FFF495"/>
</svg>
