<svg width="665" height="580" viewBox="0 0 665 580" fill="none" xmlns="http://www.w3.org/2000/svg">
<path id="pink-blob-about-us" fill-rule="evenodd" clip-rule="evenodd" d="M319.9 37.3826C389.966 20.4774 478.036 -27.8513 530.262 21.8211C584.687 73.5846 510.786 170.364 534.613 241.595C558.832 313.999 670.334 347.22 664.572 423.35C659.027 496.622 578.161 546.048 509.576 572.425C448.855 595.778 384.954 556.569 319.9 555.907C255.898 555.255 191.33 594.966 133.012 568.589C70.4761 540.305 22.0869 480.132 5.24886 413.595C-11.1478 348.803 13.2685 280.786 45.3405 222.149C73.3125 171.007 123.93 140.736 172.291 108.191C218.701 76.9595 265.52 50.5033 319.9 37.3826Z" fill="#F28B8B"/>
</svg>
