<svg width="660" height="616" viewBox="0 0 660 616" fill="none" xmlns="http://www.w3.org/2000/svg">
<path id="purple-blob" fill-rule="evenodd" clip-rule="evenodd" d="M312.995 24.4215C373.438 27.9528 439.1 -0.740833 490.026 32.0072C541.595 65.1689 546.955 135.623 572.555 191.333C602.6 256.714 682.378 320.497 652.722 386.054C622.087 453.773 511.099 421.966 449.445 463.478C391.694 502.362 382.005 605.591 312.995 614.793C245.433 623.801 190.288 556.64 147.271 503.769C111.531 459.843 117.826 398.298 94.7641 346.577C67.3912 285.188 -4.82932 241.078 0.255353 174.055C5.50098 104.91 57.7154 40.333 120.268 10.4042C179.829 -18.0935 247.079 20.5704 312.995 24.4215Z" fill="#B69CEC"/>
</svg>
