<svg width="829" height="633" viewBox="0 0 829 633" fill="none" xmlns="http://www.w3.org/2000/svg">
<path id="blue-blob" fill-rule="evenodd" clip-rule="evenodd" d="M390.753 26.7432C461.248 27.9194 528.212 45.1707 590.492 75.4153C666.326 112.242 752.023 147.936 785.886 218.63C821.529 293.039 820.628 386.621 771.632 453.568C724.661 517.747 623.873 521.152 543.777 549.441C480.739 571.705 421.897 599.258 353.8 601.142C279.201 603.206 204.573 593.932 139.376 560.631C64.4504 522.361 -22.9722 475.938 -38.802 400.611C-54.5767 325.547 17.3734 262.114 63.2657 198.461C100.193 147.243 141.44 99.7951 200.349 68.906C257.947 38.7044 323.47 25.6206 390.753 26.7432Z" fill="#F28B8B"/>
</svg>
