<svg width="345" height="411" viewBox="0 0 345 411" fill="none" xmlns="http://www.w3.org/2000/svg">
<path id="Vector" fill-rule="evenodd" clip-rule="evenodd" d="M216.102 11.2211C261.645 16.8392 307.062 25.4816 343.632 52.8873C379.694 79.9122 398.129 121.2 417.065 161.823C438.725 208.285 477.26 256.42 461.18 305.044C445.101 353.666 387.551 374.669 339.998 394.872C300.841 411.507 258.529 413.188 216.102 409.163C177.388 405.491 142.347 391.583 108.359 372.9C69.5894 351.588 23.0377 334.307 6.16323 293.761C-11.0404 252.424 12.2865 207.607 21.3427 163.815C31.8159 113.172 22.1452 50.3986 63.1322 18.2853C104.135 -13.8404 164.179 4.81593 216.102 11.2211Z" fill="#B69CEC"/>
</svg>
