<svg width="673" height="335" viewBox="0 0 673 335" fill="none" xmlns="http://www.w3.org/2000/svg">
<path fill-rule="evenodd" clip-rule="evenodd" d="M324.005 3.15917C392.155 -3.86862 462.289 -1.11266 522.48 31.6116C588.145 67.3125 658.506 118.311 671.266 191.957C683.849 264.577 621.694 325.806 584.477 389.422C555.706 438.602 518.525 477.429 479.804 519.229C429.362 573.684 398.231 670.137 324.005 670.615C249.894 671.092 222.981 569.511 166.741 521.244C117.178 478.707 41.3746 464.92 14.811 405.252C-12.5961 343.69 1.79388 270.742 27.4858 208.444C51.8769 149.301 100.597 106.109 153.197 69.6929C204.695 34.0398 261.699 9.58423 324.005 3.15917Z" fill="#B69CEC"/>
</svg>
