<svg width="524" height="379" viewBox="0 0 524 379" fill="none" xmlns="http://www.w3.org/2000/svg">
<path fill-rule="evenodd" clip-rule="evenodd" d="M210.96 14.2372C268.065 21.3654 325.011 32.3309 370.865 67.1031C416.082 101.392 439.196 153.778 462.94 205.32C490.097 264.27 538.415 325.344 518.253 387.038C498.093 448.729 425.934 475.378 366.309 501.011C317.211 522.118 264.158 524.25 210.96 519.144C162.419 514.485 118.482 496.838 75.8667 473.133C27.2551 446.093 -31.114 424.167 -52.2722 372.722C-73.8431 320.274 -44.5945 263.41 -33.2393 207.847C-20.1075 143.591 -32.2332 63.9455 19.1586 23.2002C70.5701 -17.5606 145.856 6.11042 210.96 14.2372Z" fill="#B69CEC"/>
</svg>
