<svg width="582" height="407" viewBox="0 0 582 407" fill="none" xmlns="http://www.w3.org/2000/svg">
<path fill-rule="evenodd" clip-rule="evenodd" d="M205.105 0.502186C265.469 -2.72684 323.697 9.71608 378.633 34.9394C445.525 65.6523 520.791 94.6656 553.646 160.532C588.229 229.86 592.607 319.878 554.382 387.266C517.736 451.869 431.713 461.375 364.759 493.524C312.064 518.825 263.248 548.952 205.105 554.974C141.41 561.572 77.065 557.272 19.4653 529.291C-46.7287 497.135 -124.061 457.913 -141.746 386.478C-159.37 315.293 -101.317 249.863 -65.5654 185.833C-36.7978 134.312 -4.12738 86.1477 44.5615 52.8099C92.1668 20.2141 147.492 3.58408 205.105 0.502186Z" fill="#F4F19F"/>
</svg>
