<svg width="605" height="558" viewBox="0 0 605 558" fill="none" xmlns="http://www.w3.org/2000/svg">
<path fill-rule="evenodd" clip-rule="evenodd" d="M324.022 -62.6305C395.065 -68.6753 449.645 0.698051 497.123 53.8909C536.768 98.3069 544.896 158.169 569.494 212.385C598.446 276.197 666.148 330.326 653.84 399.308C641.424 468.896 574.924 520.489 509.672 547.669C451.011 572.104 387.092 544.455 324.022 536.691C270.36 530.086 216.945 530.422 168.853 505.717C113.864 477.468 59.7116 442.362 32.4217 386.891C2.82238 326.726 -13.4621 252.548 14.2679 191.499C41.3243 131.932 120.497 123.129 171.077 81.6328C226.617 36.066 252.44 -56.5399 324.022 -62.6305Z" fill="#F28B8B"/>
</svg>
