<svg width="699" height="638" viewBox="0 0 699 638" fill="none" xmlns="http://www.w3.org/2000/svg">
<path fill-rule="evenodd" clip-rule="evenodd" d="M345.226 5.57545C402.897 13.4043 452.038 42.2068 502.149 71.8054C558.214 104.92 621.964 130.652 653.466 187.639C688.435 250.896 719.088 335.165 682.046 397.231C644.369 460.364 541.912 433.447 481.64 475.55C423.387 516.244 413.875 614.166 345.226 632.519C274.973 651.301 193.497 618.445 143.041 566.076C95.0184 516.232 115.905 435.036 92.2787 369.979C67.3024 301.205 -11.4527 248.109 1.40929 176.079C14.3247 103.749 88.1377 57.1822 153.962 24.5391C212.799 -4.63894 280.148 -3.2588 345.226 5.57545Z" fill="#8CD8F0"/>
</svg>
